<?xml version="1.0" encoding="utf-8"?>

<!-- License Agreement at http://iconmonstr.com/license/ -->

<!DOCTYPE svg PUBLIC "-//W3C//DTD SVG 1.1//EN" "http://www.w3.org/Graphics/SVG/1.1/DTD/svg11.dtd">
<svg version="1.1" xmlns="http://www.w3.org/2000/svg" xmlns:xlink="http://www.w3.org/1999/xlink" x="0px" y="0px"
	 width="512px" height="512px" viewBox="0 0 512 512" enable-background="new 0 0 512 512" fill="#090909" xml:space="preserve">
<path id="rocket-9-icon" d="M431.077,80.863c-1.527,107.623-71.282,186.189-170.495,227.21l-56.701-56.7
	C242.957,154.244,324.271,83.195,431.077,80.863z M460.792,50.937c-166.414-12.924-260.27,110.493-292.59,208.32l84.708,84.709
	C354.077,308.45,474.847,217.467,460.792,50.937z M369.089,315.796c-10.564,7.896-20.698,14.624-31.19,20.938
	c-3.478,17.398-15.271,40.266-24.101,51.209c-1.328-9.571-5.541-21.307-12.298-31.793c-9.234,4.332-18.665,8.327-28.264,11.98
	c21.165,33.938,13.033,68.852,0.335,93.87C331.104,432.472,371.919,365.493,369.089,315.796z M50.086,238.516
	c25.021-12.696,59.933-20.829,93.872,0.336c3.652-9.598,7.649-19.029,11.98-28.263c-10.486-6.756-22.223-10.971-31.795-12.298
	c10.944-8.831,33.813-20.624,51.21-24.101c6.314-10.492,13.041-20.628,20.938-31.192C146.595,140.17,79.616,180.984,50.086,238.516z
	 M314.229,226.873c8.012-8.011,8.011-21.002-0.001-29.013c-8.012-8.012-21.001-8.012-29.013-0.001
	c-8.013,8.013-8.013,21.002-0.001,29.014C293.228,234.884,306.217,234.886,314.229,226.873z M380.29,179.668
	c13.221-13.22,13.221-34.653,0.002-47.872c-13.219-13.22-34.653-13.222-47.874-0.001c-13.22,13.219-13.218,34.655,0.001,47.873
	C345.639,192.888,367.071,192.888,380.29,179.668z M224.333,356.653c-24.438,45.249-74.34,81.444-143.329,71.243
	c-9.615-65.026,27.423-115.088,75.212-139.361l14.76,14.762c-52.904,24.277-59.355,71.723-55.805,90.521
	c19.368,3.604,70.054-1.714,94.55-51.776L224.333,356.653z"/>
</svg>
